<?xml version="1.0" standalone="no"?><!DOCTYPE svg PUBLIC "-//W3C//DTD SVG 1.1//EN" "http://www.w3.org/Graphics/SVG/1.1/DTD/svg11.dtd"><svg t="1603850647569" class="icon" viewBox="0 0 1024 1024" version="1.1" xmlns="http://www.w3.org/2000/svg" p-id="5474" xmlns:xlink="http://www.w3.org/1999/xlink" width="200" height="200"><defs><style type="text/css"></style></defs><path d="M931.507 389.803l-83.968-212.31A113.664 113.664 0 0 0 732.851 102.4H291.166a113.664 113.664 0 0 0-114.688 75.093L92.51 389.803A116.053 116.053 0 0 0 0.009 504.832v270.336h94.549v68.267c0 106.154 128 105.13 128 0v-68.267h580.267v68.267c0 105.13 128 106.154 128 0v-68.267h93.184V504.832a116.053 116.053 0 0 0-92.502-115.03zM204.81 611.328a73.045 73.045 0 1 1 72.704-73.045 72.704 72.704 0 0 1-72.704 73.045z m-26.283-226.645l64.17-164.182c8.193-23.552 19.798-40.618 47.787-40.618h443.734c27.648 0 39.253 17.066 47.445 40.618l63.147 164.182z m640.683 226.645a73.045 73.045 0 1 1 72.362-73.045 72.704 72.704 0 0 1-72.362 73.045z m0 0" p-id="5475"></path></svg>