<?xml version="1.0" standalone="no"?><!DOCTYPE svg PUBLIC "-//W3C//DTD SVG 1.1//EN" "http://www.w3.org/Graphics/SVG/1.1/DTD/svg11.dtd"><svg t="1602578197648" class="icon" viewBox="0 0 1024 1024" version="1.1" xmlns="http://www.w3.org/2000/svg" p-id="3631" xmlns:xlink="http://www.w3.org/1999/xlink" width="200" height="200"><defs><style type="text/css"></style></defs><path d="M182.491429 150.857143l373.211428 0 0 729.051428-373.211428 0 0-729.051428Z" fill="#FFFFFF" p-id="3632"></path><path d="M229.851429 627.565714h309.028571a16.822857 16.822857 0 0 1 16.822857 16.822857v188.16a47.36 47.36 0 0 1-47.36 47.36H229.851429A47.36 47.36 0 0 1 182.857143 832.548571v-157.622857a47.36 47.36 0 0 1 46.994286-47.36z" fill="#EAEAEA" p-id="3633"></path><path d="M492.251429 907.337143H245.76a91.428571 91.428571 0 0 1-91.428571-91.428572v-601.6a91.428571 91.428571 0 0 1 91.428571-91.428571h246.491429a91.428571 91.428571 0 0 1 91.428571 91.428571v602.331429a91.428571 91.428571 0 0 1-91.428571 90.697143zM245.76 178.285714a36.571429 36.571429 0 0 0-36.571429 36.571429v601.782857a36.571429 36.571429 0 0 0 36.571429 36.571429h246.491429a36.571429 36.571429 0 0 0 36.571428-36.571429V214.308571a36.571429 36.571429 0 0 0-36.571428-36.571428z" fill="#808080" p-id="3634"></path><path d="M334.262857 302.994286H182.857143a27.428571 27.428571 0 0 1 0-54.857143h151.771428a27.428571 27.428571 0 0 1 0 54.857143zM277.028571 420.571429H182.857143a27.428571 27.428571 0 0 1 0-54.857143h94.537143a27.428571 27.428571 0 0 1 0 54.857143zM334.262857 537.6H182.857143a27.428571 27.428571 0 1 1 0-54.857143h151.771428a27.428571 27.428571 0 0 1 0 54.857143zM277.028571 654.994286H182.857143a27.428571 27.428571 0 1 1 0-54.857143h94.537143a27.428571 27.428571 0 0 1 0 54.857143zM334.262857 772.388571H182.857143a27.428571 27.428571 0 1 1 0-54.857142h151.771428a27.428571 27.428571 0 0 1 0 54.857142zM676.571429 663.405714a27.428571 27.428571 0 0 1-19.382858-46.811428 142.994286 142.994286 0 0 0 0-202.24A27.428571 27.428571 0 0 1 694.857143 375.588571a197.851429 197.851429 0 0 1 0 279.771429 27.977143 27.977143 0 0 1-18.285714 8.045714z" fill="#808080" p-id="3635"></path><path d="M778.971429 766.171429a27.062857 27.062857 0 0 1-19.382858-8.045715 27.611429 27.611429 0 0 1 0-38.765714 288.548571 288.548571 0 0 0 0-407.954286 27.611429 27.611429 0 0 1 0-38.765714 27.245714 27.245714 0 0 1 38.765715 0 343.222857 343.222857 0 0 1 0 485.485714 26.514286 26.514286 0 0 1-19.382857 8.045715z" fill="#808080" p-id="3636"></path></svg>