<?xml version="1.0" standalone="no"?><!DOCTYPE svg PUBLIC "-//W3C//DTD SVG 1.1//EN" "http://www.w3.org/Graphics/SVG/1.1/DTD/svg11.dtd"><svg t="1602578297503" class="icon" viewBox="0 0 1024 1024" version="1.1" xmlns="http://www.w3.org/2000/svg" p-id="5196" xmlns:xlink="http://www.w3.org/1999/xlink" width="200" height="200"><defs><style type="text/css"></style></defs><path d="M308.128 523.64a19.512 19.512 0 0 0-19.72-19.72h-76.56a19.824 19.824 0 1 0 0 39.648h76.352a19.72 19.72 0 0 0 20.976-19.72l-1.048-0.208z m27.48 134.464l-54.328 53.696a19.296 19.296 0 0 0 0 27.696c7.984 7.2 20.12 7.2 28.104 0l54.336-54.336a19.296 19.296 0 0 0 0-27.68c-7.992-7.216-20.128-7.216-28.112 0v0.624z" p-id="5197" fill="#1296db"></path><path d="M485.2 278.688a19.824 19.824 0 0 0 17.176 29.736c114.408 0.112 207.128 92.832 207.248 207.248a19.824 19.824 0 1 0 39.648 0c-0.464-136.16-110.736-246.44-246.896-246.896-7.088 0-13.632 3.776-17.168 9.912z" p-id="5198" fill="#1296db"></path><path d="M502.376 192.416a19.52 19.52 0 0 0-19.72 19.72 19.52 19.52 0 0 0 19.72 19.72c156.664 0.112 283.6 127.152 283.6 283.816a19.824 19.824 0 1 0 39.648 0C825.392 337.24 680.8 192.64 502.376 192.416z" p-id="5199" fill="#1296db"></path><path d="M338.336 387.92c7.984 7.208 20.12 7.208 28.104 0a19.296 19.296 0 0 0 0-27.68l-53.696-54.544a19.728 19.728 0 0 0-27.904 27.896l53.496 54.328zM661.792 658.736a19.8 19.8 0 1 0-28.104 27.896l53.696 54.328c7.984 7.2 20.128 7.2 28.112 0a19.296 19.296 0 0 0 0-27.688l-53.704-54.536zM497.336 715.368a19.52 19.52 0 0 0-19.72 19.72v76.352a19.824 19.824 0 0 0 39.648 0v-76.352a19.512 19.512 0 0 0-19.72-19.72h-0.208zM496 680c83.944 0 152-68.056 152-152s-68.056-152-152-152-152 68.056-152 152 68.056 152 152 152z m0-32c-66.272 0-120-53.728-120-120 0-66.272 53.728-120 120-120 66.272 0 120 53.728 120 120 0 66.272-53.728 120-120 120zM764.72 137.552a24 24 0 1 1-25.784 40.488C671.528 135.128 593.296 112 511.584 112c-77.92 0-152.704 21.032-218.024 60.272a24 24 0 1 1-24.72-41.144C341.576 87.432 424.888 64 511.584 64c90.912 0 178.072 25.768 253.128 73.552zM266.688 884.24a24 24 0 0 1 25.776-40.496c67.416 42.912 145.648 66.04 227.36 66.04 77.92 0 152.704-21.024 218.016-60.264a24 24 0 0 1 24.72 41.144c-72.728 43.696-156.048 67.12-242.744 67.12-90.904 0-178.064-25.76-253.12-73.544z m617.552-121.152a24 24 0 0 1-40.496-25.776c42.912-67.416 66.04-145.64 66.04-227.352 0-77.92-21.024-152.704-60.264-218.024a24 24 0 0 1 41.144-24.72c43.696 72.736 67.12 156.048 67.12 242.744 0 90.912-25.76 178.064-73.544 253.128z m-746.696-496.4a24 24 0 1 1 40.488 25.776C135.128 359.888 112 438.12 112 519.84c0 77.92 21.032 152.704 60.272 218.016a24 24 0 1 1-41.144 24.72C87.432 689.84 64 606.52 64 519.824c0-90.904 25.768-178.064 73.552-253.12z" p-id="5200" fill="#1296db"></path></svg>