<?xml version="1.0" standalone="no"?><!DOCTYPE svg PUBLIC "-//W3C//DTD SVG 1.1//EN" "http://www.w3.org/Graphics/SVG/1.1/DTD/svg11.dtd"><svg t="1603850480838" class="icon" viewBox="0 0 1024 1024" version="1.1" xmlns="http://www.w3.org/2000/svg" p-id="3085" xmlns:xlink="http://www.w3.org/1999/xlink" width="200" height="200"><defs><style type="text/css"></style></defs><path d="M506.368 246.272c60.416 0 108.544-49.152 108.544-108.544 0.512-60.416-48.64-108.544-108.544-108.544s-108.544 48.64-108.544 108.544 48.64 108.544 108.544 108.544z m128 22.016h-56.832L508.928 351.744 437.76 267.776H363.52l-127.488 281.088 43.52 35.84 89.6-128 7.168 161.28-15.36 397.824h97.28l20.992-338.944h44.544l17.408 338.944H645.12l-23.04-397.824v-1.536l2.048-34.304 10.24-313.856z" p-id="3086"></path><path d="M542.72 1015.296h103.936l-23.04-397.824v-1.536l9.216-179.2 78.848 132.608 47.104-40.448-117.76-261.632h-62.976L508.928 351.744l16.384 324.608 17.408 338.944z" p-id="3087"></path></svg>