<?xml version="1.0" standalone="no"?><!DOCTYPE svg PUBLIC "-//W3C//DTD SVG 1.1//EN" "http://www.w3.org/Graphics/SVG/1.1/DTD/svg11.dtd"><svg t="1603850727121" class="icon" viewBox="0 0 1024 1024" version="1.1" xmlns="http://www.w3.org/2000/svg" p-id="6282" xmlns:xlink="http://www.w3.org/1999/xlink" width="200" height="200"><defs><style type="text/css"></style></defs><path d="M704.703 175.04l-190.094-0.225c13.026 1.893 23.027 12.993 23.027 26.406v116.063c0 14.743-12.08 26.695-26.982 26.695-14.904 0-26.983-11.952-26.983-26.695V201.221c0-13.439 10.037-24.554 23.1-26.416l-190.837-0.226L143.25 849.722h736.3L704.704 175.04z m-168.33 647.33c0 14.742-12.08 26.693-26.982 26.693-14.9 0-26.98-11.951-26.98-26.693V706.302c0-14.743 12.08-26.694 26.98-26.694 14.902 0 26.983 11.95 26.983 26.694V822.37z m0-252.715c0 14.743-12.08 26.695-26.982 26.695-14.9 0-26.98-11.952-26.98-26.695V453.588c0-14.743 12.08-26.693 26.98-26.693 14.902 0 26.983 11.95 26.983 26.693v116.068z" p-id="6283"></path><path d="M903.928 814.309L737.901 194.69c-3.942-14.711-18.804-23.51-33.199-19.652-14.395 3.856-22.868 18.908-18.925 33.619l166.026 619.617c3.943 14.71 18.805 23.51 33.2 19.653 14.394-3.858 22.867-18.91 18.925-33.62z m-584.16-639.27c-14.394-3.857-29.257 4.942-33.199 19.653L120.543 814.309c-3.943 14.709 4.53 29.761 18.925 33.619 14.394 3.856 29.257-4.942 33.199-19.653l166.027-619.617c3.942-14.71-4.532-29.762-18.926-33.618z" p-id="6284"></path></svg>